<?xml version="1.0" encoding="UTF-8"?>
<svg fill="#d3daec" role="img" data-name="Layer 3" xmlns="http://www.w3.org/2000/svg" viewBox="0 0 1602.25 1952.27" >
<title>Planckstar</title>
  <path d="M584.82,1103.95c-64.24,20.02-82.97,39.42-90.34,48-61.98,72.18-20.49,193.91-15.89,205.99,12.73,33.49,30.14,67.22,57.21,90.97,58.27,51.14,138.83,14.83,207.7,16.4,87.57-1.43,176.69,23.8,244.5,80.45,72.84,61.01,132.83,154.93,117.39,252.83-13.13,85.71-91.79,133.71-172.43,147.6-192.66,37.1-427.45-99.66-451.91-302.26-4.53-47.33.24-99.33-14.86-144.22-10.09-31.76-27.74-59.58-45.95-87.2-42.34-62.41-89.52-136.6-69.83-215.33,6.51-27.42,20.87-52.6,37.08-75.66,17.32-25.46,41.6-53.47,40.98-84.94-1-40.41-43.18-63.28-74.54-82.58-25.24-15.06-50.22-30.29-72.8-48.85-59.11-48.62-125.47-144.13-76.14-217.27,18.38-26.98,50.87-42.23,73.79-64.34,47.46-45.74-5.19-81.56-47.83-100.3-45.93-20.53-93.43-37.69-134.27-67.66C22.54,404.59-16.26,309.79,6.48,222.78,31.57,114.8,133.01,51.43,232.09,14.59c16.5-6.11,34.43-11.74,51.7-13.8,18.77-3.06,44.57,2.13,39.24,25.1l-.05.21c-9.88,33.4-64.98,66.37-90.61,92.23-97.32,86.46-94.54,183.54,2.5,269.17,282.17,225.1,859.64,173.01,1206.37,81.16,20.53-5.39,43.35-11.32,66.05-14.21,27.22-3.32,56.09-2.73,77.8,14.51,25.96,20.65,20.27,57.12-2.56,79.07-35.61,34.59-87.9,44.53-134.88,54.91-315.98,55.82-643.38,29.53-961.31,74.97-36.64,5.77-75.59,11.8-108.32,29.74-20.83,11.6-33.43,26.87-39.05,43.67-13.14,39.31,19.91,79.93,30.76,93.43,38.86,48.33,93.42,65.04,115.11,71.14,178.45,50.13,392.44,16.14,449.58,60.24,7.67,5.92,30.7,23.69,28.06,42.86-1.16,8.38-6.81,14.01-8.8,15.99-33.21,33.09-224.32,23.92-368.89,68.96ZM615.84,1680.94c29.1,79.94,135.28,141.12,220.13,115.83,12.44-3.71,50.9-15.17,64.99-47.74,22.06-50.98-30.67-118.92-74.3-150.77-69.15-50.47-147.05-32.66-165.52-28.45-25.67,5.85-36.37,13.98-42.89,22.12-23.92,29.91-6.23,78.51-2.41,89Z"/>
</svg>
