<?xml version="1.0" encoding="UTF-8"?>
<svg id="Layer_3" data-name="Layer 3" xmlns="http://www.w3.org/2000/svg" viewBox="0 0 2002.27 2000">
  <defs>
    <style>
      .cls-1 {
        fill: #fff;
      }
    </style>
  </defs>
  <rect y="0" width="2002.27" height="2000" rx="193.18" ry="193.18"/>
  <path class="cls-1" d="M879.23,1095.21c-53.33,16.61-68.87,32.72-74.99,39.84-51.45,59.91-17.01,160.95-13.19,170.98,10.57,27.79,25.01,55.79,47.48,75.51,48.37,42.45,115.23,12.31,172.39,13.62,72.69-1.19,146.66,19.75,202.94,66.78,60.46,50.64,110.26,128.59,97.44,209.86-10.9,71.14-76.19,110.98-143.12,122.52-159.92,30.8-354.8-82.73-375.1-250.89-3.76-39.29.2-82.45-12.33-119.71-8.37-26.37-23.03-49.45-38.14-72.38-35.14-51.81-74.31-113.39-57.96-178.73,5.4-22.76,17.33-43.66,30.78-62.8,14.38-21.13,34.53-44.39,34.02-70.5-.83-33.54-35.84-52.52-61.87-68.54-20.95-12.5-41.68-25.14-60.42-40.54-49.06-40.36-104.15-119.63-63.2-180.34,15.26-22.39,42.23-35.05,61.25-53.4,39.4-37.97-4.31-67.69-39.7-83.26-38.12-17.04-77.55-31.28-111.45-56.16-61.54-42.34-93.74-121.02-74.87-193.25,20.83-89.63,105.03-142.22,187.27-172.8,13.7-5.08,28.58-9.74,42.91-11.45,15.58-2.54,37,1.77,32.57,20.84l-.04.17c-8.2,27.72-53.94,55.09-75.21,76.56-80.78,71.76-78.47,152.35,2.08,223.42,234.21,186.84,713.53,143.6,1001.33,67.36,17.04-4.47,35.99-9.4,54.82-11.8,22.59-2.75,46.56-2.26,64.58,12.04,21.55,17.14,16.83,47.41-2.12,65.63-29.56,28.71-72.96,36.96-111.95,45.57-262.28,46.33-534.03,24.51-797.92,62.23-30.41,4.79-62.74,9.79-89.91,24.68-17.29,9.63-27.75,22.31-32.41,36.25-10.91,32.63,16.53,66.34,25.54,77.55,32.26,40.11,77.54,53.99,95.55,59.05,148.12,41.61,325.74,13.4,373.17,50.01,6.36,4.91,25.49,19.67,23.29,35.57-.96,6.96-5.65,11.63-7.3,13.28-27.57,27.46-186.2,19.86-306.19,57.24ZM904.98,1574.13c24.15,66.35,112.28,117.14,182.72,96.15,10.32-3.08,42.25-12.59,53.95-39.62,18.31-42.32-25.46-98.71-61.67-125.14-57.4-41.89-122.05-27.11-137.39-23.62-21.31,4.85-30.19,11.6-35.6,18.36-19.86,24.83-5.17,65.17-2,73.87Z"/>
</svg>